# xmcd CD database file
#
# Track frame offsets:
#	150
#	10789
#	29253
#	44667
#	61738
#	72998
#	85937
#	107310
#	128164
#	139236
#	154552
#	172160
#	189719
#	203211
#	223603
#
# Disc length: 3198 seconds
#
# Revision: 0
# Processed by: cddbd v1.5.2PL0 Copyright (c) Steve Scherf et al.
# Submitted via: CDex 1.51
#
DISCID=d20c7c0f
DTITLE=Johnny Cash - Unearthed Vol. 5
DYEAR=1900
DGENRE=Country
TTITLE0=Delia's Gone
TTITLE1=Bird On A Wire
TTITLE2=Thirteen
TTITLE3=Rowboat
TTITLE4=The One Rose
TTITLE5=Rusty Cage
TTITLE6=Southern Accents
TTITLE7=Mercy Seat
TTITLE8=Solitary Man
TTITLE9=Wayfaring Stranger
TTITLE10=One
TTITLE11=Hung My Head
TTITLE12=We'll Meet Again
TTITLE13=The Man Comes Around
TTITLE14=Hurt
EXTD=
EXTT0=
EXTT1=
EXTT2=
EXTT3=
EXTT4=
EXTT5=
EXTT6=
EXTT7=
EXTT8=
EXTT9=
EXTT10=
EXTT11=
EXTT12=
EXTT13=
EXTT14=
PLAYORDER=
